Program Listing:
1. Animation
2. U.S. Blues
3. One More Saturday Night
4. Bill Graham's Crew Introduction
5. Goin Down The Road Feeling Bad
6. Soundcheck
7. Truckin
8. Eyes Of The World
9. Ripped Off Fan
10. Sugar Magnolia
11. It's Like A Continuous Trip
12. Intermission
13. Playing In The Band
14. Levy Gets In
15. Stella Blue
16. Casey Jones
17. The Om People
18. Weirdness From He s Gone
19. Morning Dew
20. Encore Break
21. Johnny B. Goode
22. It Must Have Been The Roses/End Credits

General
Mp4 TorrentsThe Grateful Dead The Movie Mp4 720p AAC Multichannel.mp4
Format : MPEG-4
Format profile : Base Media
Codec ID : isom
File size : 2.43 GiB
Duration : 2h 13mn
Overall bit rate mode : Variable
Overall bit rate : 2 618 Kbps
Encoded date : UTC 2012-12-31 01:12:34
Tagged date : UTC 2012-12-31 01:12:34

Video
ID : 1
Format : AVC
Format/Info : Advanced Video Codec
Format profile : High@L4.0
Format settings, CABAC : Yes
Format settings, ReFrames : 3 frames
Codec ID : avc1
Codec ID/Info : Advanced Video Coding
Duration : 2h 13mn
Bit rate mode : Variable
Bit rate : 2 295 Kbps
Maximum bit rate : 25.0 Mbps
Width : 1 280 pixels
Height : 720 pixels
Display aspect ratio : 16:9
Frame rate mode : Constant
Frame rate : 23.976 fps
Color space : YUV
Chroma subsampling : 4:2:0
Bit depth : 8 bits
Scan type : Progressive
Bits/(Pixel*Frame) : 0.104
Stream size : 2.13 GiB (88%)
Writing library : x264 core 125 r2208 d9d2288
Encoding settings : cabac=1 / ref=3 / deblock=1:0:0 / analyse=0x3:0x113 / me=hex / subme=7 / psy=1 / psy_rd=1.00:0.00 / mixed_ref=1 / me_range=16 / chroma_me=1 / trellis=1 / 8x8dct=1 / cqm=0 / deadzone=21,11 / fast_pskip=1 / chroma_qp_offset=-2 / threads=12 / lookahead_threads=2 / sliced_threads=0 / nr=0 / decimate=1 / interlaced=0 / bluray_compat=0 / constrained_intra=0 / bframes=3 / b_pyramid=0 / b_adapt=1 / b_bias=0 / direct=1 / weightb=1 / open_gop=0 / weightp=2 / keyint=240 / keyint_min=24 / scenecut=40 / intra_refresh=0 / rc_lookahead=40 / rc=crf / mbtree=1 / crf=24.0 / qcomp=0.60 / qpmin=0 / qpmax=69 / qpstep=4 / vbv_maxrate=25000 / vbv_bufsize=25000 / crf_max=0.0 / nal_hrd=vbr / ip_ratio=1.40 / aq=1:1.00
Encoded date : UTC 2012-12-31 01:12:34
Tagged date : UTC 2012-12-31 01:15:33

Audio
ID : 2
Format : AAC
Format/Info : Advanced Audio Codec
Format profile : LC
Codec ID : 40
Duration : 2h 13mn
Bit rate mode : Variable
Bit rate : 320 Kbps
Maximum bit rate : 331 Kbps
Channel(s) : 6 channels
Channel positions : Front: L C R, Side: L R, LFE
Sampling rate : 48.0 KHz
Compression mode : Lossy
Stream size : 304 MiB (12%)
Title : é0
Language : English
Encoded date : UTC 2012-12-31 01:15:11
Tagged date : UTC 2012-12-31 01:15:33 